<svg xmlns="http://www.w3.org/2000/svg" width="1680" height="1022" fill="none" viewBox="0 0 1680 1022">
  
  <defs>
    <linearGradient id="b" x1="1392.05" x2="68.095" y1="1244.99" y2="276.838" gradientUnits="userSpaceOnUse">
      <stop stop-color="#D6EAFF"/>
      <stop offset="1" stop-color="#ADD6FF"/>
    </linearGradient>
    <linearGradient id="c" x1="1369.49" x2="191.827" y1="1266.07" y2="105.257" gradientUnits="userSpaceOnUse">
      <stop stop-color="#D6EAFF"/>
      <stop offset="1" stop-color="#ADD6FF"/>
    </linearGradient>
    <linearGradient id="d" x1="1344.63" x2="350.789" y1="1284.1" y2="-39.044" gradientUnits="userSpaceOnUse">
      <stop stop-color="#D6EAFF"/>
      <stop offset="1" stop-color="#ADD6FF"/>
    </linearGradient>
    <linearGradient id="e" x1="1317.79" x2="534.945" y1="1298.9" y2="-146.235" gradientUnits="userSpaceOnUse">
      <stop stop-color="#D6EAFF"/>
      <stop offset="1" stop-color="#ADD6FF"/>
    </linearGradient>
    <linearGradient id="f" x1="1289.35" x2="731.276" y1="1310.31" y2="-211.587" gradientUnits="userSpaceOnUse">
      <stop stop-color="#D6EAFF"/>
      <stop offset="1" stop-color="#ADD6FF"/>
    </linearGradient>
    <linearGradient id="g" x1="1259.67" x2="926.746" y1="1318.24" y2="-236.05" gradientUnits="userSpaceOnUse">
      <stop stop-color="#D6EAFF"/>
      <stop offset="1" stop-color="#ADD6FF"/>
    </linearGradient>
    <linearGradient id="h" x1="1229.15" x2="1110.87" y1="1322.63" y2="-225.108" gradientUnits="userSpaceOnUse">
      <stop stop-color="#D6EAFF"/>
      <stop offset="1" stop-color="#ADD6FF"/>
    </linearGradient>
    <linearGradient id="i" x1="1198.22" x2="1277" y1="1323.51" y2="-186.687" gradientUnits="userSpaceOnUse">
      <stop stop-color="#D6EAFF"/>
      <stop offset="1" stop-color="#ADD6FF"/>
    </linearGradient>
    <linearGradient id="j" x1="1167.27" x2="1422.33" y1="1320.93" y2="-129.116" gradientUnits="userSpaceOnUse">
      <stop stop-color="#D6EAFF"/>
      <stop offset="1" stop-color="#ADD6FF"/>
    </linearGradient>
    <linearGradient id="k" x1="1136.75" x2="1547.07" y1="1315.02" y2="-59.707" gradientUnits="userSpaceOnUse">
      <stop stop-color="#D6EAFF"/>
      <stop offset="1" stop-color="#ADD6FF"/>
    </linearGradient>
    <linearGradient id="l" x1="1107.04" x2="1653.34" y1="1305.94" y2="15.919" gradientUnits="userSpaceOnUse">
      <stop stop-color="#D6EAFF"/>
      <stop offset="1" stop-color="#ADD6FF"/>
    </linearGradient>
    <linearGradient id="m" x1="1078.56" x2="1744.26" y1="1293.91" y2="93.955" gradientUnits="userSpaceOnUse">
      <stop stop-color="#D6EAFF"/>
      <stop offset="1" stop-color="#ADD6FF"/>
    </linearGradient>
    <clipPath id="a">
      <path fill="#fff" d="M0 0h1680v1022H0z"/>
    </clipPath>
  </defs>
  <g clip-path="url(#a)">
    <path stroke="url(#b)" stroke-opacity=".2" stroke-width="2" d="M801.029 1236.71c-48.67 49.64-144.568 33.91-218.736 7.73-70.154-24.77-110.399-103-173.573-146.21-65.329-44.68-150.608-51.15-202.889-111.289-56.039-64.462-83.7-148.237-91.822-227.72-8.502-83.204-22.534-194.198 44.906-231.42 77.904-42.998 195.86 77.568 282.507 50.712 73.552-22.798 49.496-196.038 130.719-178.793 84.373 17.914 48.888 186.55 125.888 233.274 89.557 54.345 206.859-49.088 288.471 18.164 67.28 55.437 56.79 171.118 24.35 239.612-32.224 68.03-151.495 46.715-190.212 110.55-39.36 64.89 33.066 181.66-19.609 235.39Z" clip-rule="evenodd" opacity=".083"/>
    <path stroke="url(#c)" stroke-opacity=".2" stroke-width="2" d="M771.513 1180.54c-55.12 41.59-150.466 13.8-222.57-21.22-68.202-33.13-99.849-114-158.823-164.035-60.986-51.744-146.652-69.178-192.61-134.144-49.261-69.635-67.51-154.208-66.457-232.07 1.101-81.509-.156-190.593 72.535-217.712 83.97-31.326 189.426 100.639 280.37 86.055 77.2-12.38 73.054-182.922 153.351-155.606 83.412 28.376 27.756 186.66 100.332 241.906 84.41 64.256 215.363-20.296 290.219 55.389 61.7 62.388 37.57 172.786-3.31 234.711-40.603 61.504-158.983 25.264-205.674 81.862-47.467 57.544 12.293 179.864-47.363 224.864Z" clip-rule="evenodd" opacity=".167"/>
    <path stroke="url(#d)" stroke-opacity=".2" stroke-width="2" d="M748.936 1123.38c-60.707 33-154.03-6.3-222.962-49.57-65.202-40.93-87.782-123.229-141.655-179.295-55.71-57.979-140.442-86.013-179.381-154.811-41.738-73.743-50.311-157.876-40.12-233.005 10.669-78.645 22.179-184.255 98.99-200.98C352.535 286.398 443.89 427.726 537.72 425.5c79.65-1.889 95.438-167.283 173.573-130.397 81.165 38.317 6.239 184.056 73.279 246.933 77.972 73.13 220.528 8.493 287.478 91.424 55.19 68.361 17.81 171.926-30.86 226.449-48.332 54.154-163.996 3.67-217.924 52.285-54.825 49.424-8.627 175.466-74.33 211.186Z" clip-rule="evenodd" opacity=".25"/>
    <path stroke="url(#e)" stroke-opacity=".2" stroke-width="2" d="M733.506 1066.15c-65.358 24.03-155.233-26.09-219.941-76.875-61.208-48.037-74.383-130.549-122.336-191.756-49.589-63.294-132.09-101.402-163.422-172.98-33.583-76.723-32.36-159.188-13.196-230.508 20.061-74.66 44.149-175.283 123.897-181.484 92.122-7.162 167.993 141.354 263.269 151.383 80.878 8.514 116.335-149.361 191.114-103.55 77.679 47.588-15.349 178.78 45.135 248.281 70.347 80.835 222.314 36.843 280.344 125.724 47.84 73.266-2.21 168.553-57.9 214.955-55.32 46.087-166.505-17.744-226.836 22.262-61.335 40.672-29.391 168.538-100.128 194.548Z" clip-rule="evenodd" opacity=".333"/>
    <path stroke="url(#f)" stroke-opacity=".2" stroke-width="2" d="M725.32 1009.8c-69.015 14.79-154.079-45.276-213.585-102.743-56.285-54.357-59.862-135.852-101.17-201.233-42.717-67.612-121.737-115.116-144.989-188.381-24.924-78.531-13.927-158.122 13.915-224.619 29.145-69.611 65.44-163.81 146.916-159.51 94.117 4.967 153.36 158.385 248.636 180.385 80.879 18.675 135.458-129.423 205.748-75.467 73.016 56.048-36.695 170.909 16.319 245.93 61.659 87.254 220.72 64.33 268.96 157.776 39.77 77.028-22.18 162.716-84.06 200.399-61.46 37.427-166.476-38.655-232.293-7.756-66.912 31.414-49.701 159.197-124.397 175.219Z" clip-rule="evenodd" opacity=".417"/>
    <path stroke="url(#g)" stroke-opacity=".2" stroke-width="2" d="M724.365 955.216c-71.637 5.451-150.613-63.56-204.023-126.772-50.519-59.791-44.444-139.058-78.487-207.586-35.205-70.866-109.557-126.949-124.382-200.783-15.89-79.142 4.714-154.696 40.816-215.426 37.791-63.573 85.748-150.005 167.728-135.387C620.716 86.15 662.442 242.114 756.289 275.62c79.665 28.443 152.547-107.763 217.293-46.562 67.258 63.575-57.488 160.562-12.74 239.915 52.048 92.293 215.818 90.547 253.538 187.104 31.1 79.593-41.81 154.502-108.95 182.997-66.68 28.302-163.954-58.753-234.268-37.323-71.484 21.787-69.263 147.566-146.797 153.465Z" clip-rule="evenodd" opacity=".5"/>
    <path stroke="url(#h)" stroke-opacity=".2" stroke-width="2" d="M730.521 903.282c-73.195-3.881-144.913-80.689-191.434-148.626-44.004-64.26-28.366-140.119-54.64-210.722-27.17-73.011-95.751-136.73-101.928-210.008-6.621-78.544 23.284-148.959 67.109-203.062C495.505 74.228 554.41-3.21 635.678 21.395 729.555 49.818 753.145 205.937 844.17 250.32c77.269 37.675 167.37-84.701 225.61-17.261 60.5 70.056-77.426 147.89-41.61 230.325 41.66 95.879 207.72 115.111 234.36 213.281 21.97 80.924-60.83 144.033-132.23 163.007-70.91 18.845-158.995-77.746-232.763-66.009-74.994 11.933-87.796 133.821-167.016 129.62Z" clip-rule="evenodd" opacity=".583"/>
    <path stroke="url(#i)" stroke-opacity=".2" stroke-width="2" d="M743.56 854.816c-73.679-13.06-137.087-96.413-176.039-167.986-36.845-67.7-11.878-139.025-29.999-210.6-18.739-74.017-80.545-144.32-77.987-215.924 2.743-76.751 41.508-140.999 92.411-187.712C605.232 23.693 674.218-43.655 753.581-9.54c91.676 39.408 96.791 193.288 183.658 247.758 73.741 46.238 179.731-60.572 230.621 12.012 52.86 75.4-96.23 133.08-69.86 217.304 30.66 97.959 196.56 137.665 211.74 235.93 12.51 81.002-78.95 131.463-153.56 140.719-74.1 9.194-151.7-95.359-227.841-93.397-77.404 1.994-105.037 118.163-184.779 104.029Z" clip-rule="evenodd" opacity=".667"/>
    <path stroke="url(#j)" stroke-opacity=".2" stroke-width="2" d="M763.154 810.574c-73.092-21.955-127.278-110.505-158.102-184.578-29.157-70.064 4.768-135.794-4.944-207.228-10.045-73.87-64.185-149.613-52.936-218.453 12.057-73.789 59.11-130.934 116.346-169.603 59.914-40.48 137.971-96.788 214.278-53.775 88.147 49.688 74.729 198.973 156.184 262.599 69.14 54.01 189.47-35.724 232.27 40.837 44.45 79.532-113.61 116.348-97.07 201.045 19.24 98.509 182.57 157.892 186.07 254.734 2.89 79.828-95.9 116.975-172.63 116.459-76.21-.513-142.22-111.341-219.624-119.098-78.687-7.886-120.734 100.823-199.842 77.061Z" clip-rule="evenodd" opacity=".75"/>
    <path stroke="url(#k)" stroke-opacity=".2" stroke-width="2" d="M788.882 771.245c-71.454-30.439-115.656-122.773-137.924-198.175-21.064-71.321 21.315-130.48 20.135-200.664-1.221-72.578-46.93-152.542-27.169-217.571 21.182-69.703 75.831-118.913 138.564-149 65.669-31.496 151.656-75.976 223.812-24.802 83.36 59.114 51.64 201.524 126.51 273.245 63.56 60.884 196.48-10.515 230.58 68.805 35.43 82.396-129.32 97.939-122.83 181.79 7.55 97.525 165.97 175.51 157.78 269.435-6.76 77.425-111.45 100.785-189.2 90.58-77.22-10.136-130.71-125.47-208.26-142.749-78.831-17.567-134.662 82.051-211.998 49.106Z" clip-rule="evenodd" opacity=".833"/>
    <path stroke="url(#l)" stroke-opacity=".2" stroke-width="2" d="M820.233 737.435c-68.802-38.396-102.417-133.049-115.837-208.597-12.694-71.461 37.509-123.167 44.852-191.016 7.595-70.164-29.056-153.076-1.09-213.305C778.135 59.959 839.578 19.4 906.895-1.693c70.47-22.078 163.135-54.114 230.125 4.372 77.39 67.56 27.87 200.918 95.12 279.567 57.09 66.764 200.65 14.696 225.6 95.519 25.92 83.959-143.15 78.123-146.76 159.827-4.21 95.028 147.06 190.281 127.31 279.845-16.28 73.83-125.36 83.127-203.01 63.455-77.12-19.539-117.36-137.553-193.95-164.024-77.856-26.911-146.632 62.122-221.097 20.567Z" clip-rule="evenodd" opacity=".917"/>
    <path stroke="url(#m)" stroke-opacity=".2" stroke-width="2" d="M856.619 709.658c-65.184-45.713-87.78-141.199-92.199-215.715-4.179-70.484 53.1-113.971 68.827-178.439 16.264-66.667-10.846-151.22 24.893-205.735 38.308-58.432 105.643-89.752 176.57-101.565 74.25-12.365 172.25-31.518 233.15 33.33 70.35 74.91 3.8 197.184 62.5 281.499 49.83 71.574 201.96 39.551 217.44 120.611 16.09 84.205-154.87 57.189-168.5 135.483-15.86 91.062 126.13 202.01 95.16 285.84-25.53 69.102-137.43 64.263-213.87 35.477-75.93-28.59-102.41-147.432-176.95-182.636-75.78-35.79-156.472 41.325-227.021-8.15Z" clip-rule="evenodd"/>
  </g>
</svg>
